<?xml version="1.0" encoding="UTF-8" standalone="no"?>
<!DOCTYPE svg PUBLIC "-//W3C//DTD SVG 1.1//EN"
 "http://www.w3.org/Graphics/SVG/1.1/DTD/svg11.dtd">
<!-- Generated by graphviz version 2.43.0 (0)
 -->
<!-- Title: pastafarianism Pages: 1 -->
<svg width="1127pt" height="620pt"
 viewBox="0.00 0.00 1127.03 620.00" xmlns="http://www.w3.org/2000/svg" xmlns:xlink="http://www.w3.org/1999/xlink">
<g id="graph0" class="graph" transform="scale(1 1) rotate(0) translate(4 616)">
<title>pastafarianism</title>
<polygon fill="white" stroke="transparent" points="-4,4 -4,-616 1123.03,-616 1123.03,4 -4,4"/>
<!-- Sequence -->
<g id="node1" class="node">
<title>Sequence</title>
<polygon fill="orange" stroke="black" points="718.52,-612 642.52,-612 642.52,-576 718.52,-576 718.52,-612"/>
<text text-anchor="middle" x="680.52" y="-591.8" font-family="Times,serif" font-size="9.00">Ⓜ Sequence</text>
</g>
<!-- Repeat Three Times -->
<g id="node2" class="node">
<title>Repeat Three Times</title>
<ellipse fill="ghostwhite" stroke="black" cx="680.52" cy="-522" rx="62.86" ry="18"/>
<text text-anchor="middle" x="680.52" y="-519.8" font-family="Times,serif" font-size="9.00">Repeat Three Times</text>
</g>
<!-- Sequence&#45;&gt;Repeat Three Times -->
<g id="edge1" class="edge">
<title>Sequence&#45;&gt;Repeat Three Times</title>
<path fill="none" stroke="black" d="M680.52,-575.7C680.52,-567.98 680.52,-558.71 680.52,-550.11"/>
<polygon fill="black" stroke="black" points="684.02,-550.1 680.52,-540.1 677.02,-550.1 684.02,-550.1"/>
</g>
<!-- Repeat Three Times Sequence -->
<g id="node3" class="node">
<title>Repeat Three Times Sequence</title>
<polygon fill="orange" stroke="black" points="766.02,-468 595.02,-468 595.02,-432 766.02,-432 766.02,-468"/>
<text text-anchor="middle" x="680.52" y="-447.8" font-family="Times,serif" font-size="9.00">Ⓜ Repeat Three Times Sequence</text>
</g>
<!-- Repeat Three Times&#45;&gt;Repeat Three Times Sequence -->
<g id="edge2" class="edge">
<title>Repeat Three Times&#45;&gt;Repeat Three Times Sequence</title>
<path fill="none" stroke="black" d="M680.52,-503.7C680.52,-495.98 680.52,-486.71 680.52,-478.11"/>
<polygon fill="black" stroke="black" points="684.02,-478.1 680.52,-468.1 677.02,-478.1 684.02,-478.1"/>
</g>
<!-- set_goal_next_ball -->
<g id="node4" class="node">
<title>set_goal_next_ball</title>
<ellipse fill="gray" stroke="black" cx="299.52" cy="-378" rx="58.13" ry="18"/>
<text text-anchor="middle" x="299.52" y="-375.8" font-family="Times,serif" font-size="9.00">set_goal_next_ball</text>
</g>
<!-- Repeat Three Times Sequence&#45;&gt;set_goal_next_ball -->
<g id="edge3" class="edge">
<title>Repeat Three Times Sequence&#45;&gt;set_goal_next_ball</title>
<path fill="none" stroke="black" d="M594.83,-436.32C531.74,-426.54 443.99,-412.01 367.52,-396 362.58,-394.97 357.46,-393.82 352.35,-392.63"/>
<polygon fill="black" stroke="black" points="353.11,-389.21 342.57,-390.3 351.48,-396.02 353.11,-389.21"/>
</g>
<!-- Repeat Until Object is Picked -->
<g id="node5" class="node">
<title>Repeat Until Object is Picked</title>
<ellipse fill="ghostwhite" stroke="black" cx="464.52" cy="-378" rx="88.17" ry="18"/>
<text text-anchor="middle" x="464.52" y="-375.8" font-family="Times,serif" font-size="9.00">Repeat Until Object is Picked</text>
</g>
<!-- Repeat Three Times Sequence&#45;&gt;Repeat Until Object is Picked -->
<g id="edge4" class="edge">
<title>Repeat Three Times Sequence&#45;&gt;Repeat Until Object is Picked</title>
<path fill="none" stroke="black" d="M627.96,-431.97C595,-421.28 552.58,-407.54 519.23,-396.73"/>
<polygon fill="black" stroke="black" points="520.22,-393.37 509.63,-393.62 518.06,-400.03 520.22,-393.37"/>
</g>
<!-- change_pose* -->
<g id="node18" class="node">
<title>change_pose*</title>
<ellipse fill="gray" stroke="black" cx="617.52" cy="-378" rx="46.38" ry="18"/>
<text text-anchor="middle" x="617.52" y="-375.8" font-family="Times,serif" font-size="9.00">change_pose*</text>
</g>
<!-- Repeat Three Times Sequence&#45;&gt;change_pose* -->
<g id="edge17" class="edge">
<title>Repeat Three Times Sequence&#45;&gt;change_pose*</title>
<path fill="none" stroke="black" d="M664.95,-431.7C657.09,-422.97 647.44,-412.24 638.9,-402.75"/>
<polygon fill="black" stroke="black" points="641.34,-400.24 632.05,-395.14 636.14,-404.92 641.34,-400.24"/>
</g>
<!-- set_goal_drop_point -->
<g id="node19" class="node">
<title>set_goal_drop_point</title>
<ellipse fill="gray" stroke="black" cx="744.52" cy="-378" rx="62.86" ry="18"/>
<text text-anchor="middle" x="744.52" y="-375.8" font-family="Times,serif" font-size="9.00">set_goal_drop_point</text>
</g>
<!-- Repeat Three Times Sequence&#45;&gt;set_goal_drop_point -->
<g id="edge18" class="edge">
<title>Repeat Three Times Sequence&#45;&gt;set_goal_drop_point</title>
<path fill="none" stroke="black" d="M696.34,-431.7C704.21,-423.09 713.84,-412.55 722.42,-403.17"/>
<polygon fill="black" stroke="black" points="725.16,-405.36 729.32,-395.62 719.99,-400.64 725.16,-405.36"/>
</g>
<!-- Repeat Until Object is Dropped -->
<g id="node20" class="node">
<title>Repeat Until Object is Dropped</title>
<ellipse fill="ghostwhite" stroke="black" cx="919.52" cy="-378" rx="94.22" ry="18"/>
<text text-anchor="middle" x="919.52" y="-375.8" font-family="Times,serif" font-size="9.00">Repeat Until Object is Dropped</text>
</g>
<!-- Repeat Three Times Sequence&#45;&gt;Repeat Until Object is Dropped -->
<g id="edge19" class="edge">
<title>Repeat Three Times Sequence&#45;&gt;Repeat Until Object is Dropped</title>
<path fill="none" stroke="black" d="M738.68,-431.97C775.72,-421.12 823.54,-407.11 860.7,-396.23"/>
<polygon fill="black" stroke="black" points="861.78,-399.56 870.39,-393.39 859.81,-392.84 861.78,-399.56"/>
</g>
<!-- let_object -->
<g id="node31" class="node">
<title>let_object</title>
<ellipse fill="gray" stroke="black" cx="1067.52" cy="-378" rx="35.59" ry="18"/>
<text text-anchor="middle" x="1067.52" y="-375.8" font-family="Times,serif" font-size="9.00">let_object</text>
</g>
<!-- Repeat Three Times Sequence&#45;&gt;let_object -->
<g id="edge30" class="edge">
<title>Repeat Three Times Sequence&#45;&gt;let_object</title>
<path fill="none" stroke="black" d="M766.21,-440.71C836,-432.77 936.67,-418.61 1022.52,-396 1025.32,-395.26 1028.19,-394.41 1031.06,-393.49"/>
<polygon fill="black" stroke="black" points="1032.37,-396.74 1040.69,-390.17 1030.09,-390.12 1032.37,-396.74"/>
</g>
<!-- Go to Ball Sequence -->
<g id="node6" class="node">
<title>Go to Ball Sequence</title>
<polygon fill="orange" stroke="black" points="527.02,-324 402.02,-324 402.02,-288 527.02,-288 527.02,-324"/>
<text text-anchor="middle" x="464.52" y="-303.8" font-family="Times,serif" font-size="9.00">Ⓜ Go to Ball Sequence</text>
</g>
<!-- Repeat Until Object is Picked&#45;&gt;Go to Ball Sequence -->
<g id="edge5" class="edge">
<title>Repeat Until Object is Picked&#45;&gt;Go to Ball Sequence</title>
<path fill="none" stroke="black" d="M464.52,-359.7C464.52,-351.98 464.52,-342.71 464.52,-334.11"/>
<polygon fill="black" stroke="black" points="468.02,-334.1 464.52,-324.1 461.02,-334.1 468.02,-334.1"/>
</g>
<!-- plan_and_follow_path1 -->
<g id="node7" class="node">
<title>plan_and_follow_path1</title>
<polygon fill="orange" stroke="black" points="402.52,-252 266.52,-252 266.52,-216 402.52,-216 402.52,-252"/>
<text text-anchor="middle" x="334.52" y="-231.8" font-family="Times,serif" font-size="9.00">Ⓜ plan_and_follow_path1</text>
</g>
<!-- Go to Ball Sequence&#45;&gt;plan_and_follow_path1 -->
<g id="edge6" class="edge">
<title>Go to Ball Sequence&#45;&gt;plan_and_follow_path1</title>
<path fill="none" stroke="black" d="M432.72,-287.88C415.41,-278.55 393.8,-266.92 375.26,-256.94"/>
<polygon fill="black" stroke="black" points="376.91,-253.85 366.44,-252.19 373.59,-260.01 376.91,-253.85"/>
</g>
<!-- check_object -->
<g id="node16" class="node">
<title>check_object</title>
<ellipse fill="gray" stroke="black" cx="464.52" cy="-234" rx="44.41" ry="18"/>
<text text-anchor="middle" x="464.52" y="-231.8" font-family="Times,serif" font-size="9.00">check_object</text>
</g>
<!-- Go to Ball Sequence&#45;&gt;check_object -->
<g id="edge15" class="edge">
<title>Go to Ball Sequence&#45;&gt;check_object</title>
<path fill="none" stroke="black" d="M464.52,-287.7C464.52,-279.98 464.52,-270.71 464.52,-262.11"/>
<polygon fill="black" stroke="black" points="468.02,-262.1 464.52,-252.1 461.02,-262.1 468.02,-262.1"/>
</g>
<!-- get_object -->
<g id="node17" class="node">
<title>get_object</title>
<ellipse fill="gray" stroke="black" cx="564.52" cy="-234" rx="37.56" ry="18"/>
<text text-anchor="middle" x="564.52" y="-231.8" font-family="Times,serif" font-size="9.00">get_object</text>
</g>
<!-- Go to Ball Sequence&#45;&gt;get_object -->
<g id="edge16" class="edge">
<title>Go to Ball Sequence&#45;&gt;get_object</title>
<path fill="none" stroke="black" d="M488.98,-287.88C503.1,-278 520.92,-265.52 535.71,-255.17"/>
<polygon fill="black" stroke="black" points="537.83,-257.95 544.02,-249.35 533.82,-252.22 537.83,-257.95"/>
</g>
<!-- Plan Sub&#45;Tree -->
<g id="node8" class="node">
<title>Plan Sub&#45;Tree</title>
<polygon fill="cyan" stroke="black" points="264.5,-154.54 264.5,-169.46 229.37,-180 179.67,-180 144.54,-169.46 144.54,-154.54 179.67,-144 229.37,-144 264.5,-154.54"/>
<text text-anchor="middle" x="204.52" y="-159.8" font-family="Times,serif" font-size="9.00">Ⓜ Plan Sub&#45;Tree</text>
</g>
<!-- plan_and_follow_path1&#45;&gt;Plan Sub&#45;Tree -->
<g id="edge7" class="edge">
<title>plan_and_follow_path1&#45;&gt;Plan Sub&#45;Tree</title>
<path fill="none" stroke="black" d="M302.72,-215.88C284.63,-206.14 261.85,-193.87 242.79,-183.61"/>
<polygon fill="black" stroke="black" points="244.23,-180.41 233.77,-178.75 240.92,-186.57 244.23,-180.41"/>
</g>
<!-- Follow Time&#45;out -->
<g id="node13" class="node">
<title>Follow Time&#45;out</title>
<ellipse fill="ghostwhite" stroke="black" cx="334.52" cy="-162" rx="51.92" ry="18"/>
<text text-anchor="middle" x="334.52" y="-159.8" font-family="Times,serif" font-size="9.00">Follow Time&#45;out</text>
</g>
<!-- plan_and_follow_path1&#45;&gt;Follow Time&#45;out -->
<g id="edge12" class="edge">
<title>plan_and_follow_path1&#45;&gt;Follow Time&#45;out</title>
<path fill="none" stroke="black" d="M334.52,-215.7C334.52,-207.98 334.52,-198.71 334.52,-190.11"/>
<polygon fill="black" stroke="black" points="338.02,-190.1 334.52,-180.1 331.02,-190.1 338.02,-190.1"/>
</g>
<!-- correct_orientation -->
<g id="node15" class="node">
<title>correct_orientation</title>
<ellipse fill="gray" stroke="black" cx="465.52" cy="-162" rx="61.4" ry="18"/>
<text text-anchor="middle" x="465.52" y="-159.8" font-family="Times,serif" font-size="9.00">correct_orientation</text>
</g>
<!-- plan_and_follow_path1&#45;&gt;correct_orientation -->
<g id="edge14" class="edge">
<title>plan_and_follow_path1&#45;&gt;correct_orientation</title>
<path fill="none" stroke="black" d="M366.57,-215.88C385.27,-205.88 408.94,-193.23 428.45,-182.81"/>
<polygon fill="black" stroke="black" points="430.19,-185.85 437.36,-178.05 426.89,-179.67 430.19,-185.85"/>
</g>
<!-- Retry Planning for 2 mins -->
<g id="node9" class="node">
<title>Retry Planning for 2 mins</title>
<ellipse fill="ghostwhite" stroke="black" cx="78.52" cy="-90" rx="78.54" ry="18"/>
<text text-anchor="middle" x="78.52" y="-87.8" font-family="Times,serif" font-size="9.00">Retry Planning for 2 mins</text>
</g>
<!-- Plan Sub&#45;Tree&#45;&gt;Retry Planning for 2 mins -->
<g id="edge8" class="edge">
<title>Plan Sub&#45;Tree&#45;&gt;Retry Planning for 2 mins</title>
<path fill="none" stroke="black" d="M175.93,-145.12C158.13,-135.23 135.04,-122.4 115.81,-111.72"/>
<polygon fill="black" stroke="black" points="117.44,-108.62 107,-106.82 114.04,-114.74 117.44,-108.62"/>
</g>
<!-- Always False -->
<g id="node11" class="node">
<title>Always False</title>
<ellipse fill="ghostwhite" stroke="black" cx="218.52" cy="-90" rx="43.76" ry="18"/>
<text text-anchor="middle" x="218.52" y="-87.8" font-family="Times,serif" font-size="9.00">Always False</text>
</g>
<!-- Plan Sub&#45;Tree&#45;&gt;Always False -->
<g id="edge10" class="edge">
<title>Plan Sub&#45;Tree&#45;&gt;Always False</title>
<path fill="none" stroke="black" d="M207.98,-143.7C209.52,-135.98 211.38,-126.71 213.1,-118.11"/>
<polygon fill="black" stroke="black" points="216.57,-118.6 215.1,-108.1 209.71,-117.22 216.57,-118.6"/>
</g>
<!-- plan -->
<g id="node10" class="node">
<title>plan</title>
<ellipse fill="gray" stroke="black" cx="78.52" cy="-18" rx="27" ry="18"/>
<text text-anchor="middle" x="78.52" y="-15.8" font-family="Times,serif" font-size="9.00">plan</text>
</g>
<!-- Retry Planning for 2 mins&#45;&gt;plan -->
<g id="edge9" class="edge">
<title>Retry Planning for 2 mins&#45;&gt;plan</title>
<path fill="none" stroke="black" d="M78.52,-71.7C78.52,-63.98 78.52,-54.71 78.52,-46.11"/>
<polygon fill="black" stroke="black" points="82.02,-46.1 78.52,-36.1 75.02,-46.1 82.02,-46.1"/>
</g>
<!-- change_pose -->
<g id="node12" class="node">
<title>change_pose</title>
<ellipse fill="gray" stroke="black" cx="218.52" cy="-18" rx="43.76" ry="18"/>
<text text-anchor="middle" x="218.52" y="-15.8" font-family="Times,serif" font-size="9.00">change_pose</text>
</g>
<!-- Always False&#45;&gt;change_pose -->
<g id="edge11" class="edge">
<title>Always False&#45;&gt;change_pose</title>
<path fill="none" stroke="black" d="M218.52,-71.7C218.52,-63.98 218.52,-54.71 218.52,-46.11"/>
<polygon fill="black" stroke="black" points="222.02,-46.1 218.52,-36.1 215.02,-46.1 222.02,-46.1"/>
</g>
<!-- follow_path -->
<g id="node14" class="node">
<title>follow_path</title>
<ellipse fill="gray" stroke="black" cx="334.52" cy="-90" rx="39.67" ry="18"/>
<text text-anchor="middle" x="334.52" y="-87.8" font-family="Times,serif" font-size="9.00">follow_path</text>
</g>
<!-- Follow Time&#45;out&#45;&gt;follow_path -->
<g id="edge13" class="edge">
<title>Follow Time&#45;out&#45;&gt;follow_path</title>
<path fill="none" stroke="black" d="M334.52,-143.7C334.52,-135.98 334.52,-126.71 334.52,-118.11"/>
<polygon fill="black" stroke="black" points="338.02,-118.1 334.52,-108.1 331.02,-118.1 338.02,-118.1"/>
</g>
<!-- Go to Drop Sequence -->
<g id="node21" class="node">
<title>Go to Drop Sequence</title>
<polygon fill="orange" stroke="black" points="984.52,-324 854.52,-324 854.52,-288 984.52,-288 984.52,-324"/>
<text text-anchor="middle" x="919.52" y="-303.8" font-family="Times,serif" font-size="9.00">Ⓜ Go to Drop Sequence</text>
</g>
<!-- Repeat Until Object is Dropped&#45;&gt;Go to Drop Sequence -->
<g id="edge20" class="edge">
<title>Repeat Until Object is Dropped&#45;&gt;Go to Drop Sequence</title>
<path fill="none" stroke="black" d="M919.52,-359.7C919.52,-351.98 919.52,-342.71 919.52,-334.11"/>
<polygon fill="black" stroke="black" points="923.02,-334.1 919.52,-324.1 916.02,-334.1 923.02,-334.1"/>
</g>
<!-- plan_and_follow_path2 -->
<g id="node22" class="node">
<title>plan_and_follow_path2</title>
<polygon fill="orange" stroke="black" points="987.52,-252 851.52,-252 851.52,-216 987.52,-216 987.52,-252"/>
<text text-anchor="middle" x="919.52" y="-231.8" font-family="Times,serif" font-size="9.00">Ⓜ plan_and_follow_path2</text>
</g>
<!-- Go to Drop Sequence&#45;&gt;plan_and_follow_path2 -->
<g id="edge21" class="edge">
<title>Go to Drop Sequence&#45;&gt;plan_and_follow_path2</title>
<path fill="none" stroke="black" d="M919.52,-287.7C919.52,-279.98 919.52,-270.71 919.52,-262.11"/>
<polygon fill="black" stroke="black" points="923.02,-262.1 919.52,-252.1 916.02,-262.1 923.02,-262.1"/>
</g>
<!-- Plan Sub&#45;Tree* -->
<g id="node23" class="node">
<title>Plan Sub&#45;Tree*</title>
<polygon fill="cyan" stroke="black" points="846.75,-154.54 846.75,-169.46 809.71,-180 757.33,-180 720.29,-169.46 720.29,-154.54 757.33,-144 809.71,-144 846.75,-154.54"/>
<text text-anchor="middle" x="783.52" y="-159.8" font-family="Times,serif" font-size="9.00">Ⓜ Plan Sub&#45;Tree*</text>
</g>
<!-- plan_and_follow_path2&#45;&gt;Plan Sub&#45;Tree* -->
<g id="edge22" class="edge">
<title>plan_and_follow_path2&#45;&gt;Plan Sub&#45;Tree*</title>
<path fill="none" stroke="black" d="M886.25,-215.88C867.16,-206.05 843.07,-193.65 823.02,-183.33"/>
<polygon fill="black" stroke="black" points="824.61,-180.21 814.12,-178.75 821.41,-186.44 824.61,-180.21"/>
</g>
<!-- Follow Time&#45;out* -->
<g id="node28" class="node">
<title>Follow Time&#45;out*</title>
<ellipse fill="ghostwhite" stroke="black" cx="919.52" cy="-162" rx="54.7" ry="18"/>
<text text-anchor="middle" x="919.52" y="-159.8" font-family="Times,serif" font-size="9.00">Follow Time&#45;out*</text>
</g>
<!-- plan_and_follow_path2&#45;&gt;Follow Time&#45;out* -->
<g id="edge27" class="edge">
<title>plan_and_follow_path2&#45;&gt;Follow Time&#45;out*</title>
<path fill="none" stroke="black" d="M919.52,-215.7C919.52,-207.98 919.52,-198.71 919.52,-190.11"/>
<polygon fill="black" stroke="black" points="923.02,-190.1 919.52,-180.1 916.02,-190.1 923.02,-190.1"/>
</g>
<!-- correct_orientation* -->
<g id="node30" class="node">
<title>correct_orientation*</title>
<ellipse fill="gray" stroke="black" cx="1055.52" cy="-162" rx="63.52" ry="18"/>
<text text-anchor="middle" x="1055.52" y="-159.8" font-family="Times,serif" font-size="9.00">correct_orientation*</text>
</g>
<!-- plan_and_follow_path2&#45;&gt;correct_orientation* -->
<g id="edge29" class="edge">
<title>plan_and_follow_path2&#45;&gt;correct_orientation*</title>
<path fill="none" stroke="black" d="M952.79,-215.88C972.29,-205.84 997.01,-193.12 1017.31,-182.67"/>
<polygon fill="black" stroke="black" points="1019,-185.73 1026.29,-178.05 1015.79,-179.51 1019,-185.73"/>
</g>
<!-- Retry Planning for 2 mins* -->
<g id="node24" class="node">
<title>Retry Planning for 2 mins*</title>
<ellipse fill="ghostwhite" stroke="black" cx="653.52" cy="-90" rx="80.66" ry="18"/>
<text text-anchor="middle" x="653.52" y="-87.8" font-family="Times,serif" font-size="9.00">Retry Planning for 2 mins*</text>
</g>
<!-- Plan Sub&#45;Tree*&#45;&gt;Retry Planning for 2 mins* -->
<g id="edge23" class="edge">
<title>Plan Sub&#45;Tree*&#45;&gt;Retry Planning for 2 mins*</title>
<path fill="none" stroke="black" d="M753.7,-144.94C735.45,-135.11 711.9,-122.44 692.23,-111.84"/>
<polygon fill="black" stroke="black" points="693.67,-108.64 683.21,-106.98 690.35,-114.81 693.67,-108.64"/>
</g>
<!-- Always False* -->
<g id="node26" class="node">
<title>Always False*</title>
<ellipse fill="ghostwhite" stroke="black" cx="798.52" cy="-90" rx="46.38" ry="18"/>
<text text-anchor="middle" x="798.52" y="-87.8" font-family="Times,serif" font-size="9.00">Always False*</text>
</g>
<!-- Plan Sub&#45;Tree*&#45;&gt;Always False* -->
<g id="edge25" class="edge">
<title>Plan Sub&#45;Tree*&#45;&gt;Always False*</title>
<path fill="none" stroke="black" d="M787.23,-143.7C788.88,-135.98 790.87,-126.71 792.71,-118.11"/>
<polygon fill="black" stroke="black" points="796.18,-118.62 794.85,-108.1 789.34,-117.15 796.18,-118.62"/>
</g>
<!-- plan* -->
<g id="node25" class="node">
<title>plan*</title>
<ellipse fill="gray" stroke="black" cx="653.52" cy="-18" rx="27" ry="18"/>
<text text-anchor="middle" x="653.52" y="-15.8" font-family="Times,serif" font-size="9.00">plan*</text>
</g>
<!-- Retry Planning for 2 mins*&#45;&gt;plan* -->
<g id="edge24" class="edge">
<title>Retry Planning for 2 mins*&#45;&gt;plan*</title>
<path fill="none" stroke="black" d="M653.52,-71.7C653.52,-63.98 653.52,-54.71 653.52,-46.11"/>
<polygon fill="black" stroke="black" points="657.02,-46.1 653.52,-36.1 650.02,-46.1 657.02,-46.1"/>
</g>
<!-- change_pose** -->
<g id="node27" class="node">
<title>change_pose**</title>
<ellipse fill="gray" stroke="black" cx="798.52" cy="-18" rx="49.15" ry="18"/>
<text text-anchor="middle" x="798.52" y="-15.8" font-family="Times,serif" font-size="9.00">change_pose**</text>
</g>
<!-- Always False*&#45;&gt;change_pose** -->
<g id="edge26" class="edge">
<title>Always False*&#45;&gt;change_pose**</title>
<path fill="none" stroke="black" d="M798.52,-71.7C798.52,-63.98 798.52,-54.71 798.52,-46.11"/>
<polygon fill="black" stroke="black" points="802.02,-46.1 798.52,-36.1 795.02,-46.1 802.02,-46.1"/>
</g>
<!-- follow_path* -->
<g id="node29" class="node">
<title>follow_path*</title>
<ellipse fill="gray" stroke="black" cx="919.52" cy="-90" rx="42.95" ry="18"/>
<text text-anchor="middle" x="919.52" y="-87.8" font-family="Times,serif" font-size="9.00">follow_path*</text>
</g>
<!-- Follow Time&#45;out*&#45;&gt;follow_path* -->
<g id="edge28" class="edge">
<title>Follow Time&#45;out*&#45;&gt;follow_path*</title>
<path fill="none" stroke="black" d="M919.52,-143.7C919.52,-135.98 919.52,-126.71 919.52,-118.11"/>
<polygon fill="black" stroke="black" points="923.02,-118.1 919.52,-108.1 916.02,-118.1 923.02,-118.1"/>
</g>
</g>
</svg>
